{"glyphs":{"0":{"ha":1210,"x_min":85,"x_max":1125,"o":"m 868 -334 l 342 -334 q 213 -298 271 -334 q 120 -203 155 -263 q 85 -72 85 -144 l 85 1021 q 120 1153 85 1093 q 213 1247 155 1212 q 342 1283 271 1283 l 868 1283 q 997 1247 939 1283 q 1090 1153 1055 1212 q 1125 1021 1125 1093 l 1125 -72 q 1090 -203 1125 -144 q 997 -298 1055 -263 q 868 -334 939 -334 m 757 -61 q 821 -35 795 -60 q 848 29 846 -9 l 848 922 q 821 987 848 960 q 758 1015 795 1015 l 452 1015 q 389 987 415 1015 q 362 922 362 960 l 363 29 q 389 -35 363 -9 q 453 -61 414 -60 l 757 -61 z "},"1":{"ha":570,"x_min":85,"x_max":485,"o":"m 485 -334 l 214 -334 l 214 1010 l 85 1010 l 85 1282 l 485 1282 l 485 -334 z "},"2":{"ha":1223,"x_min":85,"x_max":1138,"o":"m 881 -328 l 342 -328 q 213 -293 271 -328 q 120 -198 155 -258 q 85 -67 85 -139 l 85 357 q 120 488 85 429 q 213 582 155 547 q 342 618 271 618 l 793 617 q 862 701 862 618 l 862 921 q 836 986 862 959 q 772 1013 809 1013 l 427 1013 l 427 932 l 85 933 l 85 1022 q 120 1153 85 1094 q 213 1248 155 1213 q 342 1283 271 1283 l 881 1283 q 1010 1248 951 1283 q 1103 1153 1068 1213 q 1138 1022 1138 1094 l 1138 586 q 1103 460 1138 514 q 1010 375 1068 406 q 880 345 951 345 l 453 346 q 389 319 414 345 q 363 256 363 294 l 362 31 q 389 -34 362 -7 q 452 -60 415 -60 l 796 -60 l 796 22 l 1138 20 l 1138 -67 q 1103 -198 1138 -139 q 1010 -293 1068 -258 q 881 -328 951 -328 z "},"3":{"ha":1222,"x_min":85,"x_max":1137,"o":"m 881 -333 l 342 -333 q 213 -298 271 -333 q 120 -203 155 -262 q 85 -71 85 -143 l 85 17 l 427 18 l 427 -64 l 770 -64 q 833 -38 807 -64 q 860 27 860 -11 l 860 252 q 808 334 857 309 l 447 335 l 447 615 l 808 616 q 860 697 857 640 l 860 923 q 833 987 860 960 q 770 1015 807 1015 l 427 1015 l 427 932 l 85 933 l 85 1021 q 120 1153 85 1093 q 213 1248 155 1213 q 342 1283 271 1283 l 881 1283 q 1010 1248 951 1283 q 1103 1153 1068 1213 q 1137 1021 1137 1093 l 1137 596 q 1108 475 1137 531 q 1137 354 1137 419 l 1137 -71 q 1103 -203 1137 -143 q 1010 -298 1068 -262 q 881 -333 951 -333 z "},"4":{"ha":1199,"x_min":85,"x_max":1114,"o":"m 1114 -334 l 679 -334 l 679 -62 l 763 -62 l 763 220 l 85 220 l 85 1283 l 356 1283 l 356 492 l 763 492 l 763 1283 l 1034 1283 l 1034 -62 l 1114 -62 l 1114 -334 z "},"5":{"ha":1223,"x_min":85,"x_max":1138,"o":"m 881 -334 l 342 -334 q 213 -298 271 -334 q 120 -203 155 -263 q 85 -72 85 -144 l 85 16 l 427 17 l 427 -65 l 770 -65 q 834 -38 808 -65 q 861 27 861 -11 l 860 354 q 834 418 859 392 q 770 444 808 444 l 342 444 q 213 474 271 444 q 120 559 155 505 q 85 685 85 613 l 85 1021 q 120 1153 85 1093 q 213 1247 155 1212 q 342 1283 271 1283 l 881 1283 q 1010 1247 951 1283 q 1103 1153 1068 1212 q 1138 1021 1138 1093 l 1138 932 l 796 931 l 795 1012 l 451 1012 q 387 985 414 1012 q 361 920 361 958 l 361 801 q 429 717 361 718 l 881 717 q 1010 681 952 716 q 1103 587 1068 646 q 1138 455 1138 527 l 1138 -72 q 1103 -203 1138 -144 q 1010 -298 1068 -263 q 881 -334 951 -334 z "},"6":{"ha":1223,"x_min":85,"x_max":1138,"o":"m 881 -334 l 342 -334 q 213 -298 271 -334 q 120 -203 155 -263 q 85 -72 85 -144 l 85 1021 q 120 1153 85 1093 q 213 1247 155 1212 q 342 1283 271 1283 l 881 1283 q 1010 1247 951 1283 q 1103 1153 1068 1212 q 1138 1021 1138 1093 l 1138 932 l 796 931 l 795 1012 l 451 1012 q 387 985 414 1012 q 361 920 361 958 l 361 717 l 881 717 q 1010 681 952 716 q 1103 587 1068 646 q 1138 455 1138 527 l 1138 -72 q 1103 -203 1138 -144 q 1010 -298 1068 -263 q 881 -334 951 -334 m 770 -65 q 833 -38 807 -65 q 860 27 860 -11 l 860 354 q 831 416 859 392 q 765 440 804 440 l 361 444 l 361 -65 l 770 -65 z "},"7":{"ha":1206,"x_min":85,"x_max":1121,"o":"m 736 -334 l 301 -334 l 301 -62 l 376 -62 l 826 1011 l 356 1011 l 356 931 l 85 931 l 85 1283 l 1121 1283 l 1121 1011 l 1119 1011 l 1120 1010 l 670 -62 l 736 -62 l 736 -334 z "},"8":{"ha":1210,"x_min":85,"x_max":1125,"o":"m 868 -333 l 342 -333 q 213 -298 271 -333 q 120 -203 155 -262 q 85 -71 85 -143 l 85 354 q 114 475 85 419 q 85 596 85 530 l 85 1021 q 120 1153 85 1093 q 213 1248 155 1213 q 342 1283 271 1283 l 868 1283 q 997 1248 939 1283 q 1090 1153 1055 1213 q 1125 1021 1125 1093 l 1125 596 q 1096 474 1125 530 q 1125 354 1125 418 l 1125 -71 q 1090 -203 1125 -143 q 997 -298 1055 -262 q 868 -333 939 -333 m 757 -60 q 821 -34 795 -60 q 847 30 846 -8 l 848 255 q 821 320 848 293 q 758 347 795 347 l 452 347 q 389 320 415 347 q 362 255 362 293 l 362 30 q 389 -34 363 -8 q 453 -60 414 -60 l 757 -60 m 757 607 q 821 633 795 608 q 847 697 846 659 l 848 923 q 821 987 848 960 q 758 1015 795 1015 l 452 1015 q 389 987 415 1015 q 362 923 362 960 l 362 697 q 389 633 363 659 q 453 607 414 608 l 757 607 z "},"9":{"ha":1223,"x_min":85,"x_max":1138,"o":"m 881 -333 l 342 -333 q 213 -298 271 -333 q 120 -203 155 -262 q 85 -71 85 -143 l 85 18 l 427 19 l 428 -62 l 772 -62 q 836 -35 809 -62 q 862 30 862 -7 l 862 233 l 342 233 q 213 269 271 233 q 120 363 155 304 q 85 494 85 422 l 85 1021 q 120 1153 85 1093 q 213 1248 155 1213 q 342 1283 271 1283 l 881 1283 q 1010 1248 951 1283 q 1103 1153 1068 1213 q 1138 1021 1138 1093 l 1138 -71 q 1103 -203 1138 -143 q 1010 -298 1068 -262 q 881 -333 951 -333 m 861 506 l 862 1015 l 452 1015 q 389 987 415 1015 q 362 923 362 960 l 363 595 q 391 533 363 557 q 457 509 419 509 l 861 506 z "},"\u0000":{"ha":0,"x_min":0,"x_max":0,"o":""}," ":{"ha":471,"x_min":0,"x_max":0,"o":""},"A":{"ha":1413,"x_min":0,"x_max":1244,"o":"m 1244 -334 l 811 -334 l 811 -62 l 892 -62 l 892 376 l 351 376 l 351 -62 l 432 -62 l 432 -334 l 0 -334 l 0 -62 l 80 -62 l 80 783 q 153 1054 80 931 q 350 1249 227 1176 q 622 1321 473 1321 q 894 1249 771 1321 q 1090 1054 1017 1176 q 1163 783 1163 931 l 1163 -62 l 1244 -62 l 1244 -334 m 892 647 l 892 783 q 855 917 892 857 q 757 1014 819 978 q 622 1050 696 1050 q 486 1014 547 1050 q 388 917 425 978 q 351 783 351 857 l 351 647 l 892 647 z "},"B":{"ha":1333,"x_min":0,"x_max":1164,"o":"m 671 -334 l 0 -334 l 0 -62 l 81 -62 l 81 1008 l 0 1008 l 0 1279 l 585 1279 q 814 1218 711 1279 q 978 1054 917 1157 q 1040 827 1040 951 q 951 559 1040 679 q 1106 387 1048 492 q 1164 157 1164 282 q 1097 -90 1164 22 q 919 -268 1031 -201 q 671 -334 806 -334 m 585 647 q 715 700 661 647 q 768 827 768 753 q 715 955 768 902 q 585 1008 661 1008 l 352 1008 l 352 647 l 585 647 m 671 -62 q 827 2 762 -62 q 892 157 892 66 q 827 312 892 248 q 671 376 762 376 l 352 376 l 352 -62 l 671 -62 z "},"C":{"ha":1253,"x_min":0,"x_max":1083,"o":"m 541 -366 q 269 -294 392 -366 q 73 -99 146 -221 q 0 172 0 24 l 0 783 q 73 1054 0 931 q 269 1249 146 1176 q 541 1321 392 1321 q 811 1249 689 1321 l 811 1280 l 1083 1280 q 1082 783 1083 783 l 811 783 q 775 917 811 857 q 677 1014 739 978 q 541 1050 616 1050 q 405 1014 467 1050 q 308 917 344 978 q 271 783 271 857 l 271 172 q 308 38 271 98 q 405 -59 344 -23 q 541 -95 467 -95 q 677 -59 616 -95 q 775 38 739 -23 q 811 172 811 98 l 1083 172 q 1010 -99 1083 24 q 813 -294 937 -221 q 541 -366 690 -366 z "},"D":{"ha":1333,"x_min":0,"x_max":1164,"o":"m 640 -334 l 0 -334 l 0 -62 l 81 -62 l 81 1008 l 0 1008 l 0 1279 l 640 1279 q 903 1209 785 1279 q 1093 1020 1022 1139 q 1164 759 1164 902 l 1164 186 q 1093 -75 1164 43 q 903 -263 1022 -193 q 640 -334 785 -334 m 640 -62 q 767 -29 709 -62 q 858 61 824 5 q 892 186 892 118 l 892 759 q 858 884 892 827 q 767 974 824 941 q 640 1008 709 1008 l 352 1008 l 352 -62 l 640 -62 z "},"E":{"ha":1156,"x_min":0,"x_max":987,"o":"m 987 -334 l 0 -334 l 0 -62 l 80 -62 l 80 1008 l 0 1008 l 0 1279 l 987 1279 l 987 927 l 715 927 l 715 1008 l 351 1008 l 351 647 l 781 647 l 781 376 l 351 376 l 351 -62 l 715 -62 l 715 18 l 987 18 l 987 -334 z "},"F":{"ha":1156,"x_min":0,"x_max":987,"o":"m 435 -334 l 0 -334 l 0 -62 l 80 -62 l 80 1008 l 0 1008 l 0 1279 l 987 1279 l 987 927 l 715 927 l 715 1008 l 351 1008 l 351 647 l 781 647 l 781 376 l 351 376 l 351 -62 l 435 -62 l 435 -334 z "},"G":{"ha":1253,"x_min":0,"x_max":1083,"o":"m 542 -368 q 270 -295 393 -368 q 73 -100 146 -222 q 0 171 0 22 l 0 782 q 73 1053 0 930 q 270 1247 146 1175 q 542 1320 393 1320 q 812 1248 689 1320 l 812 1280 l 1083 1280 l 1083 782 l 812 782 q 775 916 812 856 q 677 1013 739 977 q 542 1048 616 1048 q 406 1013 467 1048 q 308 916 345 977 q 271 782 271 856 l 271 171 q 308 37 271 97 q 406 -60 345 -24 q 542 -96 467 -96 q 677 -60 616 -96 q 775 37 739 -24 q 812 171 812 97 l 812 284 l 684 284 l 684 555 l 1083 555 l 1083 -333 l 812 -333 l 812 -296 q 542 -368 689 -368 z "},"H":{"ha":1413,"x_min":0,"x_max":1244,"o":"m 1243 -334 l 811 -334 l 811 -62 l 892 -62 l 892 376 l 351 376 l 351 -62 l 432 -62 l 432 -334 l 0 -334 l 0 -62 l 80 -62 l 80 1008 l 0 1008 l 0 1279 l 80 1279 l 80 1280 l 351 1280 l 351 1279 l 432 1279 l 432 1008 l 351 1008 l 351 647 l 892 647 l 892 1008 l 811 1008 l 811 1280 l 1163 1280 l 1163 1279 l 1244 1279 l 1243 1008 l 1163 1008 l 1163 -62 l 1244 -62 l 1243 -334 z "},"I":{"ha":602,"x_min":0,"x_max":433,"o":"m 432 -334 l 0 -334 l 0 -62 l 81 -62 l 81 1008 l 0 1008 l 0 1280 l 352 1280 l 352 1279 l 433 1279 l 432 1008 l 352 1008 l 352 -62 l 433 -62 l 432 -334 z "},"J":{"ha":1333,"x_min":0,"x_max":1164,"o":"m 542 -366 q 270 -293 393 -366 q 73 -98 146 -220 q 0 172 0 24 l 0 405 l 271 405 l 271 172 q 308 38 271 99 q 406 -58 345 -22 q 542 -94 467 -94 q 678 -58 616 -94 q 775 38 739 -22 q 812 172 812 99 l 812 1008 l 731 1008 l 731 1279 l 1164 1279 l 1164 1008 l 1083 1008 l 1083 172 q 1010 -98 1083 24 q 814 -293 937 -220 q 542 -366 691 -366 z "},"K":{"ha":1316,"x_min":0,"x_max":1147,"o":"m 1145 -334 l 663 -332 l 665 -60 l 756 -60 l 520 317 l 352 103 l 352 -62 l 433 -62 l 433 -334 l 0 -334 l 1 -62 l 81 -62 l 81 1008 l 1 1008 l 1 1280 l 352 1280 l 352 1279 l 433 1279 l 433 1008 l 352 1008 l 352 543 l 717 1008 l 614 1008 l 614 1279 l 1145 1279 l 1145 1008 l 1062 1008 l 699 545 l 1076 -62 l 1147 -62 l 1145 -334 z "},"L":{"ha":1156,"x_min":0,"x_max":987,"o":"m 987 -334 l 0 -334 l 0 -62 l 79 -62 l 79 1008 l 0 1008 l 0 1279 l 437 1279 l 437 1008 l 351 1008 l 351 -62 l 715 -62 l 715 18 l 987 18 l 987 -334 z "},"M":{"ha":1874,"x_min":0,"x_max":1705,"o":"m 1703 -334 l 1242 -334 l 1242 -62 l 1337 -62 l 1337 654 l 995 -59 l 1085 -59 l 1085 -330 l 619 -330 l 619 -59 l 709 -59 l 368 652 l 368 -62 l 461 -62 l 461 -334 l 0 -334 l 0 -62 l 96 -62 l 96 1008 l 0 1008 l 0 1279 l 366 1279 l 368 1280 l 852 270 l 1336 1280 l 1337 1279 l 1705 1279 l 1705 1008 l 1608 1008 l 1608 -62 l 1703 -62 l 1703 -334 z "},"N":{"ha":1415,"x_min":0,"x_max":1245,"o":"m 1245 -334 l 889 -334 l 353 695 l 353 -62 l 434 -62 l 434 -334 l 0 -334 l 0 -62 l 81 -62 l 81 1008 l 0 1008 l 0 1279 l 350 1279 l 353 1280 l 889 253 l 889 1008 l 808 1008 l 808 1279 l 1242 1279 l 1242 1008 l 1160 1008 l 1160 -62 l 1245 -62 l 1245 -334 z "},"O":{"ha":1253,"x_min":0,"x_max":1083,"o":"m 541 -366 q 269 -294 392 -366 q 73 -99 146 -221 q 0 172 0 24 l 0 783 q 73 1054 0 931 q 269 1249 146 1176 q 541 1321 392 1321 q 813 1249 690 1321 q 1010 1054 937 1176 q 1083 783 1083 931 l 1083 172 q 1010 -99 1083 24 q 813 -294 937 -221 q 541 -366 690 -366 m 541 -95 q 677 -59 616 -95 q 775 38 739 -23 q 811 172 811 98 l 811 783 q 775 917 811 857 q 677 1014 739 978 q 541 1050 616 1050 q 405 1014 467 1050 q 308 917 344 978 q 271 783 271 857 l 271 172 q 308 38 271 98 q 405 -59 344 -23 q 541 -95 467 -95 z "},"P":{"ha":1333,"x_min":0,"x_max":1163,"o":"m 436 -334 l 0 -334 l 0 -62 l 81 -62 l 81 1008 l 0 1008 l 0 1279 l 670 1279 q 918 1213 806 1279 q 1097 1035 1030 1146 q 1163 789 1163 924 q 1097 542 1163 654 q 918 365 1030 431 q 670 298 806 298 l 352 298 l 352 -62 l 436 -62 l 436 -334 m 670 570 q 827 634 762 570 q 892 789 892 698 q 827 943 892 879 q 670 1008 762 1008 l 352 1008 l 352 570 l 670 570 z "},"Q":{"ha":1308,"x_min":0,"x_max":1139,"o":"m 745 -761 l 630 -515 l 703 -481 l 644 -357 q 542 -366 594 -366 q 269 -294 392 -366 q 73 -99 146 -221 q 0 172 0 24 l 0 783 q 73 1054 0 931 q 269 1249 146 1176 q 542 1321 392 1321 q 814 1249 691 1321 q 1010 1054 937 1176 q 1083 783 1083 931 l 1083 172 q 1031 -59 1083 47 q 889 -240 979 -165 l 949 -366 l 1024 -332 l 1139 -578 l 745 -761 m 519 -94 l 435 83 l 681 199 l 765 22 q 812 172 812 88 l 812 783 q 775 917 812 857 q 677 1014 739 978 q 542 1050 616 1050 q 406 1014 467 1050 q 308 917 345 978 q 271 783 271 857 l 271 172 q 304 43 271 102 q 394 -51 338 -15 q 519 -94 450 -87 z "},"R":{"ha":1336,"x_min":0,"x_max":1166,"o":"m 1165 -334 l 683 -332 l 684 -60 l 776 -60 l 552 298 l 352 298 l 352 -62 l 436 -62 l 436 -334 l 0 -334 l 0 -62 l 81 -62 l 81 1008 l 0 1008 l 0 1279 l 670 1279 q 918 1213 806 1279 q 1097 1035 1030 1146 q 1164 789 1164 924 q 1123 594 1164 685 q 1013 436 1083 504 q 850 332 943 369 l 1096 -62 l 1166 -62 l 1165 -334 m 670 570 q 827 634 762 570 q 892 789 892 698 q 827 943 892 879 q 670 1008 762 1008 l 352 1008 l 352 570 l 670 570 z "},"S":{"ha":1223,"x_min":0,"x_max":1053,"o":"m 796 -333 l 257 -333 q 128 -298 186 -333 q 35 -203 70 -262 q 0 -71 0 -144 l 0 17 l 342 18 l 342 -64 l 686 -64 q 749 -38 723 -64 q 776 27 776 -11 l 775 252 q 749 317 774 291 q 685 343 724 342 l 257 342 q 128 373 186 342 q 35 457 70 403 q 0 584 0 511 l 0 1021 q 35 1153 0 1093 q 128 1247 70 1212 q 257 1283 186 1283 l 796 1283 q 925 1247 867 1283 q 1018 1153 983 1212 q 1053 1021 1053 1093 l 1053 932 l 711 931 l 711 1012 l 366 1012 q 302 985 329 1012 q 276 920 276 958 l 276 700 q 345 615 276 616 l 796 615 q 925 580 867 615 q 1018 485 983 545 q 1053 354 1053 426 l 1053 -71 q 1018 -203 1053 -144 q 925 -298 983 -262 q 796 -333 867 -333 z "},"T":{"ha":1417,"x_min":0,"x_max":1247,"o":"m 841 -334 l 406 -334 l 406 -62 l 488 -62 l 488 1008 l 271 1008 l 271 925 l 0 925 l 0 1279 l 1247 1279 l 1247 925 l 976 925 l 976 1008 l 759 1008 l 759 -62 l 841 -62 l 841 -334 z "},"U":{"ha":1413,"x_min":0,"x_max":1244,"o":"m 622 -366 q 350 -293 473 -366 q 153 -98 227 -220 q 80 172 80 24 l 80 1012 l 0 1012 l 0 1283 l 432 1283 l 432 1012 l 351 1012 l 351 172 q 388 38 351 99 q 486 -58 425 -22 q 622 -94 547 -94 q 758 -58 696 -94 q 856 38 819 -22 q 892 172 892 99 l 892 1008 l 812 1008 l 811 1279 l 1244 1279 l 1244 1008 l 1163 1008 l 1163 172 q 1090 -98 1163 24 q 894 -293 1017 -220 q 622 -366 771 -366 z "},"V":{"ha":1476,"x_min":0,"x_max":1306,"o":"m 958 -334 l 359 -334 l 359 -62 l 437 -62 l 87 1008 l 0 1008 l 0 1279 l 449 1279 l 449 1008 l 372 1008 l 655 146 l 936 1008 l 860 1008 l 860 1279 l 1306 1279 l 1306 1008 l 1221 1008 l 873 -62 l 958 -62 l 958 -334 z "},"W":{"ha":2264,"x_min":0,"x_max":2095,"o":"m 1748 -334 l 1148 -334 l 1148 -62 l 1226 -62 l 1049 479 l 872 -62 l 958 -62 l 958 -334 l 359 -334 l 359 -62 l 437 -62 l 87 1008 l 0 1008 l 0 1279 l 449 1279 l 449 1008 l 372 1008 l 654 146 l 906 916 l 821 916 l 821 1187 l 1280 1187 l 1280 916 l 1192 916 l 1444 146 l 1725 1008 l 1649 1008 l 1649 1279 l 2095 1279 l 2095 1008 l 2010 1008 l 1662 -62 l 1748 -62 l 1748 -334 z "},"X":{"ha":1370,"x_min":0,"x_max":1200,"o":"m 1200 -334 l 718 -334 l 718 -62 l 795 -62 l 600 232 l 405 -62 l 483 -62 l 483 -334 l 0 -334 l 0 -62 l 79 -62 l 437 477 l 83 1012 l 0 1012 l 0 1283 l 483 1283 l 483 1012 l 408 1012 l 600 722 l 792 1012 l 718 1012 l 718 1283 l 1200 1283 l 1200 1012 l 1118 1012 l 763 477 l 1121 -62 l 1200 -62 l 1200 -334 z "},"Y":{"ha":1367,"x_min":0,"x_max":1197,"o":"m 800 -334 l 365 -334 l 365 -62 l 447 -62 l 447 328 l 72 1012 l 0 1012 l 0 1283 l 479 1283 l 479 1012 l 381 1012 l 586 637 l 804 1012 l 711 1012 l 711 1283 l 1197 1283 l 1197 1012 l 1118 1012 l 718 326 l 718 -62 l 800 -62 l 800 -334 z "},"Z":{"ha":1207,"x_min":0,"x_max":1038,"o":"m 1038 -334 l 0 -334 l 0 -62 l 4 -62 l 3 -61 l 713 1012 l 272 1012 l 272 932 l 1 932 l 1 1283 l 1038 1283 l 1038 1012 l 1037 1012 l 1038 1011 l 327 -62 l 766 -62 l 766 18 l 1038 18 l 1038 -334 z "},"a":{"ha":1413,"x_min":0,"x_max":1244,"o":"m 1244 -334 l 811 -334 l 811 -62 l 892 -62 l 892 376 l 351 376 l 351 -62 l 432 -62 l 432 -334 l 0 -334 l 0 -62 l 80 -62 l 80 783 q 153 1054 80 931 q 350 1249 227 1176 q 622 1321 473 1321 q 894 1249 771 1321 q 1090 1054 1017 1176 q 1163 783 1163 931 l 1163 -62 l 1244 -62 l 1244 -334 m 892 647 l 892 783 q 855 917 892 857 q 757 1014 819 978 q 622 1050 696 1050 q 486 1014 547 1050 q 388 917 425 978 q 351 783 351 857 l 351 647 l 892 647 z "},"b":{"ha":1333,"x_min":0,"x_max":1164,"o":"m 671 -334 l 0 -334 l 0 -62 l 81 -62 l 81 1008 l 0 1008 l 0 1279 l 585 1279 q 814 1218 711 1279 q 978 1054 917 1157 q 1040 827 1040 951 q 951 559 1040 679 q 1106 387 1048 492 q 1164 157 1164 282 q 1097 -90 1164 22 q 919 -268 1031 -201 q 671 -334 806 -334 m 585 647 q 715 700 661 647 q 768 827 768 753 q 715 955 768 902 q 585 1008 661 1008 l 352 1008 l 352 647 l 585 647 m 671 -62 q 827 2 762 -62 q 892 157 892 66 q 827 312 892 248 q 671 376 762 376 l 352 376 l 352 -62 l 671 -62 z "},"c":{"ha":1253,"x_min":0,"x_max":1083,"o":"m 541 -366 q 269 -294 392 -366 q 73 -99 146 -221 q 0 172 0 24 l 0 783 q 73 1054 0 931 q 269 1249 146 1176 q 541 1321 392 1321 q 811 1249 689 1321 l 811 1280 l 1083 1280 q 1082 783 1083 783 l 811 783 q 775 917 811 857 q 677 1014 739 978 q 541 1050 616 1050 q 405 1014 467 1050 q 308 917 344 978 q 271 783 271 857 l 271 172 q 308 38 271 98 q 405 -59 344 -23 q 541 -95 467 -95 q 677 -59 616 -95 q 775 38 739 -23 q 811 172 811 98 l 1083 172 q 1010 -99 1083 24 q 813 -294 937 -221 q 541 -366 690 -366 z "},"d":{"ha":1333,"x_min":0,"x_max":1164,"o":"m 640 -334 l 0 -334 l 0 -62 l 81 -62 l 81 1008 l 0 1008 l 0 1279 l 640 1279 q 903 1209 785 1279 q 1093 1020 1022 1139 q 1164 759 1164 902 l 1164 186 q 1093 -75 1164 43 q 903 -263 1022 -193 q 640 -334 785 -334 m 640 -62 q 767 -29 709 -62 q 858 61 824 5 q 892 186 892 118 l 892 759 q 858 884 892 827 q 767 974 824 941 q 640 1008 709 1008 l 352 1008 l 352 -62 l 640 -62 z "},"e":{"ha":1156,"x_min":0,"x_max":987,"o":"m 987 -334 l 0 -334 l 0 -62 l 80 -62 l 80 1008 l 0 1008 l 0 1279 l 987 1279 l 987 927 l 715 927 l 715 1008 l 351 1008 l 351 647 l 781 647 l 781 376 l 351 376 l 351 -62 l 715 -62 l 715 18 l 987 18 l 987 -334 z "},"f":{"ha":1156,"x_min":0,"x_max":987,"o":"m 435 -334 l 0 -334 l 0 -62 l 80 -62 l 80 1008 l 0 1008 l 0 1279 l 987 1279 l 987 927 l 715 927 l 715 1008 l 351 1008 l 351 647 l 781 647 l 781 376 l 351 376 l 351 -62 l 435 -62 l 435 -334 z "},"g":{"ha":1253,"x_min":0,"x_max":1083,"o":"m 542 -368 q 270 -295 393 -368 q 73 -100 146 -222 q 0 171 0 22 l 0 782 q 73 1053 0 930 q 270 1247 146 1175 q 542 1320 393 1320 q 812 1248 689 1320 l 812 1280 l 1083 1280 l 1083 782 l 812 782 q 775 916 812 856 q 677 1013 739 977 q 542 1048 616 1048 q 406 1013 467 1048 q 308 916 345 977 q 271 782 271 856 l 271 171 q 308 37 271 97 q 406 -60 345 -24 q 542 -96 467 -96 q 677 -60 616 -96 q 775 37 739 -24 q 812 171 812 97 l 812 284 l 684 284 l 684 555 l 1083 555 l 1083 -333 l 812 -333 l 812 -296 q 542 -368 689 -368 z "},"h":{"ha":1413,"x_min":0,"x_max":1244,"o":"m 1243 -334 l 811 -334 l 811 -62 l 892 -62 l 892 376 l 351 376 l 351 -62 l 432 -62 l 432 -334 l 0 -334 l 0 -62 l 80 -62 l 80 1008 l 0 1008 l 0 1279 l 80 1279 l 80 1280 l 351 1280 l 351 1279 l 432 1279 l 432 1008 l 351 1008 l 351 647 l 892 647 l 892 1008 l 811 1008 l 811 1280 l 1163 1280 l 1163 1279 l 1244 1279 l 1243 1008 l 1163 1008 l 1163 -62 l 1244 -62 l 1243 -334 z "},"i":{"ha":602,"x_min":0,"x_max":433,"o":"m 432 -334 l 0 -334 l 0 -62 l 81 -62 l 81 1008 l 0 1008 l 0 1280 l 352 1280 l 352 1279 l 433 1279 l 432 1008 l 352 1008 l 352 -62 l 433 -62 l 432 -334 z "},"j":{"ha":1333,"x_min":0,"x_max":1164,"o":"m 542 -366 q 270 -293 393 -366 q 73 -98 146 -220 q 0 172 0 24 l 0 405 l 271 405 l 271 172 q 308 38 271 99 q 406 -58 345 -22 q 542 -94 467 -94 q 678 -58 616 -94 q 775 38 739 -22 q 812 172 812 99 l 812 1008 l 731 1008 l 731 1279 l 1164 1279 l 1164 1008 l 1083 1008 l 1083 172 q 1010 -98 1083 24 q 814 -293 937 -220 q 542 -366 691 -366 z "},"k":{"ha":1316,"x_min":0,"x_max":1147,"o":"m 1145 -334 l 663 -332 l 665 -60 l 756 -60 l 520 317 l 352 103 l 352 -62 l 433 -62 l 433 -334 l 0 -334 l 1 -62 l 81 -62 l 81 1008 l 1 1008 l 1 1280 l 352 1280 l 352 1279 l 433 1279 l 433 1008 l 352 1008 l 352 543 l 717 1008 l 614 1008 l 614 1279 l 1145 1279 l 1145 1008 l 1062 1008 l 699 545 l 1076 -62 l 1147 -62 l 1145 -334 z "},"l":{"ha":1156,"x_min":0,"x_max":987,"o":"m 987 -334 l 0 -334 l 0 -62 l 79 -62 l 79 1008 l 0 1008 l 0 1279 l 437 1279 l 437 1008 l 351 1008 l 351 -62 l 715 -62 l 715 18 l 987 18 l 987 -334 z "},"m":{"ha":1874,"x_min":0,"x_max":1705,"o":"m 1703 -334 l 1242 -334 l 1242 -62 l 1337 -62 l 1337 654 l 995 -59 l 1085 -59 l 1085 -330 l 619 -330 l 619 -59 l 709 -59 l 368 652 l 368 -62 l 461 -62 l 461 -334 l 0 -334 l 0 -62 l 96 -62 l 96 1008 l 0 1008 l 0 1279 l 366 1279 l 368 1280 l 852 270 l 1336 1280 l 1337 1279 l 1705 1279 l 1705 1008 l 1608 1008 l 1608 -62 l 1703 -62 l 1703 -334 z "},"n":{"ha":1415,"x_min":0,"x_max":1245,"o":"m 1245 -334 l 889 -334 l 353 695 l 353 -62 l 434 -62 l 434 -334 l 0 -334 l 0 -62 l 81 -62 l 81 1008 l 0 1008 l 0 1279 l 350 1279 l 353 1280 l 889 253 l 889 1008 l 808 1008 l 808 1279 l 1242 1279 l 1242 1008 l 1160 1008 l 1160 -62 l 1245 -62 l 1245 -334 z "},"o":{"ha":1253,"x_min":0,"x_max":1083,"o":"m 541 -366 q 269 -294 392 -366 q 73 -99 146 -221 q 0 172 0 24 l 0 783 q 73 1054 0 931 q 269 1249 146 1176 q 541 1321 392 1321 q 813 1249 690 1321 q 1010 1054 937 1176 q 1083 783 1083 931 l 1083 172 q 1010 -99 1083 24 q 813 -294 937 -221 q 541 -366 690 -366 m 541 -95 q 677 -59 616 -95 q 775 38 739 -23 q 811 172 811 98 l 811 783 q 775 917 811 857 q 677 1014 739 978 q 541 1050 616 1050 q 405 1014 467 1050 q 308 917 344 978 q 271 783 271 857 l 271 172 q 308 38 271 98 q 405 -59 344 -23 q 541 -95 467 -95 z "},"p":{"ha":1333,"x_min":0,"x_max":1163,"o":"m 436 -334 l 0 -334 l 0 -62 l 81 -62 l 81 1008 l 0 1008 l 0 1279 l 670 1279 q 918 1213 806 1279 q 1097 1035 1030 1146 q 1163 789 1163 924 q 1097 542 1163 654 q 918 365 1030 431 q 670 298 806 298 l 352 298 l 352 -62 l 436 -62 l 436 -334 m 670 570 q 827 634 762 570 q 892 789 892 698 q 827 943 892 879 q 670 1008 762 1008 l 352 1008 l 352 570 l 670 570 z "},"q":{"ha":1308,"x_min":0,"x_max":1139,"o":"m 745 -761 l 630 -515 l 703 -481 l 644 -357 q 542 -366 594 -366 q 269 -294 392 -366 q 73 -99 146 -221 q 0 172 0 24 l 0 783 q 73 1054 0 931 q 269 1249 146 1176 q 542 1321 392 1321 q 814 1249 691 1321 q 1010 1054 937 1176 q 1083 783 1083 931 l 1083 172 q 1031 -59 1083 47 q 889 -240 979 -165 l 949 -366 l 1024 -332 l 1139 -578 l 745 -761 m 519 -94 l 435 83 l 681 199 l 765 22 q 812 172 812 88 l 812 783 q 775 917 812 857 q 677 1014 739 978 q 542 1050 616 1050 q 406 1014 467 1050 q 308 917 345 978 q 271 783 271 857 l 271 172 q 304 43 271 102 q 394 -51 338 -15 q 519 -94 450 -87 z "},"r":{"ha":1336,"x_min":0,"x_max":1166,"o":"m 1165 -334 l 683 -332 l 684 -60 l 776 -60 l 552 298 l 352 298 l 352 -62 l 436 -62 l 436 -334 l 0 -334 l 0 -62 l 81 -62 l 81 1008 l 0 1008 l 0 1279 l 670 1279 q 918 1213 806 1279 q 1097 1035 1030 1146 q 1164 789 1164 924 q 1123 594 1164 685 q 1013 436 1083 504 q 850 332 943 369 l 1096 -62 l 1166 -62 l 1165 -334 m 670 570 q 827 634 762 570 q 892 789 892 698 q 827 943 892 879 q 670 1008 762 1008 l 352 1008 l 352 570 l 670 570 z "},"s":{"ha":1223,"x_min":0,"x_max":1053,"o":"m 796 -333 l 257 -333 q 128 -298 186 -333 q 35 -203 70 -262 q 0 -71 0 -144 l 0 17 l 342 18 l 342 -64 l 686 -64 q 749 -38 723 -64 q 776 27 776 -11 l 775 252 q 749 317 774 291 q 685 343 724 342 l 257 342 q 128 373 186 342 q 35 457 70 403 q 0 584 0 511 l 0 1021 q 35 1153 0 1093 q 128 1247 70 1212 q 257 1283 186 1283 l 796 1283 q 925 1247 867 1283 q 1018 1153 983 1212 q 1053 1021 1053 1093 l 1053 932 l 711 931 l 711 1012 l 366 1012 q 302 985 329 1012 q 276 920 276 958 l 276 700 q 345 615 276 616 l 796 615 q 925 580 867 615 q 1018 485 983 545 q 1053 354 1053 426 l 1053 -71 q 1018 -203 1053 -144 q 925 -298 983 -262 q 796 -333 867 -333 z "},"t":{"ha":1417,"x_min":0,"x_max":1247,"o":"m 841 -334 l 406 -334 l 406 -62 l 488 -62 l 488 1008 l 271 1008 l 271 925 l 0 925 l 0 1279 l 1247 1279 l 1247 925 l 976 925 l 976 1008 l 759 1008 l 759 -62 l 841 -62 l 841 -334 z "},"u":{"ha":1413,"x_min":0,"x_max":1244,"o":"m 622 -366 q 350 -293 473 -366 q 153 -98 227 -220 q 80 172 80 24 l 80 1012 l 0 1012 l 0 1283 l 432 1283 l 432 1012 l 351 1012 l 351 172 q 388 38 351 99 q 486 -58 425 -22 q 622 -94 547 -94 q 758 -58 696 -94 q 856 38 819 -22 q 892 172 892 99 l 892 1008 l 812 1008 l 811 1279 l 1244 1279 l 1244 1008 l 1163 1008 l 1163 172 q 1090 -98 1163 24 q 894 -293 1017 -220 q 622 -366 771 -366 z "},"v":{"ha":1476,"x_min":0,"x_max":1306,"o":"m 958 -334 l 359 -334 l 359 -62 l 437 -62 l 87 1008 l 0 1008 l 0 1279 l 449 1279 l 449 1008 l 372 1008 l 655 146 l 936 1008 l 860 1008 l 860 1279 l 1306 1279 l 1306 1008 l 1221 1008 l 873 -62 l 958 -62 l 958 -334 z "},"w":{"ha":2264,"x_min":0,"x_max":2095,"o":"m 1748 -334 l 1148 -334 l 1148 -62 l 1226 -62 l 1049 479 l 872 -62 l 958 -62 l 958 -334 l 359 -334 l 359 -62 l 437 -62 l 87 1008 l 0 1008 l 0 1279 l 449 1279 l 449 1008 l 372 1008 l 654 146 l 906 916 l 821 916 l 821 1187 l 1280 1187 l 1280 916 l 1192 916 l 1444 146 l 1725 1008 l 1649 1008 l 1649 1279 l 2095 1279 l 2095 1008 l 2010 1008 l 1662 -62 l 1748 -62 l 1748 -334 z "},"x":{"ha":1370,"x_min":0,"x_max":1200,"o":"m 1200 -334 l 718 -334 l 718 -62 l 795 -62 l 600 232 l 405 -62 l 483 -62 l 483 -334 l 0 -334 l 0 -62 l 79 -62 l 437 477 l 83 1012 l 0 1012 l 0 1283 l 483 1283 l 483 1012 l 408 1012 l 600 722 l 792 1012 l 718 1012 l 718 1283 l 1200 1283 l 1200 1012 l 1118 1012 l 763 477 l 1121 -62 l 1200 -62 l 1200 -334 z "},"y":{"ha":1367,"x_min":0,"x_max":1197,"o":"m 800 -334 l 365 -334 l 365 -62 l 447 -62 l 447 328 l 72 1012 l 0 1012 l 0 1283 l 479 1283 l 479 1012 l 381 1012 l 586 637 l 804 1012 l 711 1012 l 711 1283 l 1197 1283 l 1197 1012 l 1118 1012 l 718 326 l 718 -62 l 800 -62 l 800 -334 z "},"z":{"ha":1207,"x_min":0,"x_max":1038,"o":"m 1038 -334 l 0 -334 l 0 -62 l 4 -62 l 3 -61 l 713 1012 l 272 1012 l 272 932 l 1 932 l 1 1283 l 1038 1283 l 1038 1012 l 1037 1012 l 1038 1011 l 327 -62 l 766 -62 l 766 18 l 1038 18 l 1038 -334 z "}}}
